<?xml version="1.0" encoding="UTF-8" standalone="no"?>
<svg
   xmlns:dc="http://purl.org/dc/elements/1.1/"
   xmlns:cc="http://creativecommons.org/ns#"
   xmlns:rdf="http://www.w3.org/1999/02/22-rdf-syntax-ns#"
   xmlns:svg="http://www.w3.org/2000/svg"
   xmlns="http://www.w3.org/2000/svg"
   xmlns:sodipodi="http://sodipodi.sourceforge.net/DTD/sodipodi-0.dtd"
   xmlns:inkscape="http://www.inkscape.org/namespaces/inkscape"
   inkscape:version="1.0 (4035a4fb49, 2020-05-01)"
   sodipodi:docname="banner-bg2.svg"
   id="svg16"
   version="1.1"
   viewBox="0 0 1920.183 1075.636"
   height="1075.636"
   width="1920.183">
  <metadata
     id="metadata20">
    <rdf:RDF>
      <cc:Work
         rdf:about="">
        <dc:format>image/svg+xml</dc:format>
        <dc:type
           rdf:resource="http://purl.org/dc/dcmitype/StillImage" />
        <dc:title></dc:title>
      </cc:Work>
    </rdf:RDF>
  </metadata>
  <sodipodi:namedview
     inkscape:current-layer="svg16"
     inkscape:window-maximized="1"
     inkscape:window-y="-8"
     inkscape:window-x="-8"
     inkscape:cy="579.39284"
     inkscape:cx="960.09149"
     inkscape:zoom="0.50016921"
     showgrid="false"
     id="namedview18"
     inkscape:window-height="705"
     inkscape:window-width="1366"
     inkscape:pageshadow="2"
     inkscape:pageopacity="0"
     guidetolerance="10"
     gridtolerance="10"
     objecttolerance="10"
     borderopacity="1"
     bordercolor="#666666"
     pagecolor="#ffffff" />
  <defs
     id="defs9">
    <linearGradient
       gradientUnits="objectBoundingBox"
       y2="1"
       x2="0.5"
       x1="0.5"
       id="linear-gradient">
      <stop
         id="stop2"
         stop-color="#361cc1"
         offset="0" />
      <stop
         id="stop4"
         stop-color="#2e82ef"
         offset="1" />
    </linearGradient>
    <clipPath
       id="clip-path">
      <path
         fill="url(#linear-gradient)"
         transform="translate(533 329)"
         d="M-533.031,278.516s95.269,204.193,401.21,161.147,419.656-32.1,544.188,96.892,343.977,107.54,572.909,67.066,360.19,68.158,401.79,142.968c.041-2.4-.074-1075.621-.074-1075.621l-1920,.011Z"
         data-name="Path 199"
         id="Path_199" />
    </clipPath>
  </defs>
  <g
     transform="translate(0.089 0.042)"
     data-name="Group 112"
     id="Group_112">
    <path
       sodipodi:nodetypes="cssscccc"
       fill="url(#linear-gradient)"
       opacity="0.11"
       transform="translate(533,329)"
       d="m -533.089,278.364 c 0,0 -63.51452,125.98257 237.26148,77.51557 300.7760016,-48.467 574.98765,2.3147 699.5752,70.95588 129.55049,71.3755 385.02016,23.92635 598.98092,-67.5854 186.9102,-79.94215 347.1714,73.78317 384.3654,141.42717 6.014,-121.94272 -0.373,-829.69222 -0.373,-829.69222 l -1919.766,-0.027 z"
       data-name="Path 195"
       id="Path_195" />
    <path
       sodipodi:nodetypes="cssscccc"
       fill="url(#linear-gradient)"
       transform="translate(533,329)"
       d="m -533.031,278.516 c 0,0 -29.94801,151.05356 257.25872,37.18895 269.9531745,-107.02435 424.3745,-106.48165 576.17717,-11.07146 192.509,120.9947 403.9567,81.54879 616.89411,-32.90017 204.778,-110.06348 426.1677,32.17018 467.7677,106.98018 0.041,-44.3858 1.9253,-707.7455 1.9253,-707.7455 l -1920,0.011 z"
       data-name="Path 194"
       id="Path_194" />
    <g
       clip-path="url(#clip-path)"
       data-name="Mask Group 6"
       id="Mask_Group_6">
      <path
         opacity="0.14"
         stroke-width="128"
         stroke="#361cc1"
         fill="none"
         transform="translate(522 366.416)"
         d="M-496.368,321.285S-322.126-70.761,321.065,66.253s869.415,77.467,1056.161-463.982"
         data-name="Path 4"
         id="Path_4" />
    </g>
  </g>
</svg>
